<svg xmlns="http://www.w3.org/2000/svg" width="60" height="60" viewBox="0 0 60 60">
  <path id="panda" d="M56.092,18.084a19.382,19.382,0,0,1,3.863,11.949q0,9.489-4.36,15.493a24.4,24.4,0,0,1-12.029,8.7,8.869,8.869,0,0,1-4.682,4.422,23.24,23.24,0,0,1-8.9,1.377,23.154,23.154,0,0,1-8.9-1.377,8.885,8.885,0,0,1-4.682-4.422,24.418,24.418,0,0,1-12.029-8.7q-4.362-6-4.36-15.492A19.382,19.382,0,0,1,3.884,18.084,10.7,10.7,0,0,1,.958,15.037,6.453,6.453,0,0,1,.9,8.39,15.628,15.628,0,0,1,7.162,2.562,19.069,19.069,0,0,1,12.693.307a9.37,9.37,0,0,1,4.888.175A6.238,6.238,0,0,1,21.15,3.44a9.952,9.952,0,0,1,1.288,4.686,48.932,48.932,0,0,1,15.1,0A9.952,9.952,0,0,1,38.826,3.44,6.369,6.369,0,0,1,42.4.453,8.97,8.97,0,0,1,47.283.278a19.818,19.818,0,0,1,5.531,2.284A15.848,15.848,0,0,1,59.107,8.39a6.327,6.327,0,0,1-.088,6.647,9.79,9.79,0,0,1-2.926,3.047ZM30.016,11.289a38.06,38.06,0,0,0-13.228,2.167,21.513,21.513,0,0,0-9.451,6.531,15.82,15.82,0,0,0-3.57,10.338q0,13.882,11.472,19.271a34.348,34.348,0,0,1-.234-4.569,12.844,12.844,0,0,0,5.151,8.083,15.93,15.93,0,0,0,9.833,3.163,15.93,15.93,0,0,0,9.833-3.163,12.844,12.844,0,0,0,5.151-8.083q0,2.87-.175,4.569,11.413-5.389,11.413-19.271a15.82,15.82,0,0,0-3.57-10.338,21.53,21.53,0,0,0-9.423-6.531,37.816,37.816,0,0,0-13.2-2.167ZM43.1,41.28a6.764,6.764,0,0,1-4.858-2.225,14.732,14.732,0,0,1-3.366-5.213,15.888,15.888,0,0,1-1.141-5.683,10.287,10.287,0,0,1,2.2-6.619,6.577,6.577,0,0,1,5.3-2.753q1.99,0,4.682,2.664a26.288,26.288,0,0,1,4.624,6.238,13.405,13.405,0,0,1,1.932,6.092A6.224,6.224,0,0,1,50.941,38a8.694,8.694,0,0,1-3.57,2.519,12.115,12.115,0,0,1-4.272.761ZM41.255,26.285a3.678,3.678,0,0,0-2.662,1.083,3.746,3.746,0,0,0,0,5.329,3.686,3.686,0,0,0,2.662,1.083,3.7,3.7,0,0,0,3.717-3.719A3.7,3.7,0,0,0,43.888,27.4a3.537,3.537,0,0,0-2.634-1.113ZM37.48,43.154q0,.878-3.014,3.25t-4.477,2.372q-1.463,0-4.477-2.4T22.5,43.153q0-1.172,1.99-1.522a33.545,33.545,0,0,1,5.5-.352,33.053,33.053,0,0,1,5.5.352q1.99.354,1.99,1.522Zm-20.6-1.875a12.165,12.165,0,0,1-4.272-.761A8.673,8.673,0,0,1,9.035,38a6.228,6.228,0,0,1-1.521-4.217,13.4,13.4,0,0,1,1.932-6.092,26.333,26.333,0,0,1,4.624-6.238q2.692-2.666,4.682-2.664a6.574,6.574,0,0,1,5.3,2.753,10.3,10.3,0,0,1,2.2,6.619A15.936,15.936,0,0,1,25.1,33.843a14.7,14.7,0,0,1-3.366,5.213,6.768,6.768,0,0,1-4.858,2.225Zm1.9-14.994a3.678,3.678,0,0,0-2.662,1.083,3.746,3.746,0,0,0,0,5.329,3.686,3.686,0,0,0,2.662,1.083,3.7,3.7,0,0,0,3.717-3.719A3.7,3.7,0,0,0,21.412,27.4a3.537,3.537,0,0,0-2.634-1.113Z" transform="translate(-0.007 -0.023)" fill="#3fb180"/>
</svg>
